<?xml version="1.0" encoding="UTF-8" standalone="no"?>
<!-- Created with Inkscape (http://www.inkscape.org/) -->

<svg
   width="512"
   height="512"
   viewBox="0 0 512 512"
   version="1.1"
   id="svg1"
   xml:space="preserve"
   inkscape:version="1.3.2 (091e20e, 2023-11-25, custom)"
   sodipodi:docname="icon.svg"
   xmlns:inkscape="http://www.inkscape.org/namespaces/inkscape"
   xmlns:sodipodi="http://sodipodi.sourceforge.net/DTD/sodipodi-0.dtd"
   xmlns="http://www.w3.org/2000/svg"
   xmlns:svg="http://www.w3.org/2000/svg"><sodipodi:namedview
     id="namedview1"
     pagecolor="#ffffff"
     bordercolor="#000000"
     borderopacity="0.25"
     inkscape:showpageshadow="2"
     inkscape:pageopacity="0.0"
     inkscape:pagecheckerboard="0"
     inkscape:deskcolor="#d1d1d1"
     inkscape:document-units="px"
     inkscape:zoom="1.7763672"
     inkscape:cx="246.85212"
     inkscape:cy="272.74766"
     inkscape:window-width="1649"
     inkscape:window-height="1266"
     inkscape:window-x="1476"
     inkscape:window-y="556"
     inkscape:window-maximized="0"
     inkscape:current-layer="layer1" /><defs
     id="defs1" /><g
     inkscape:label="Layer 1"
     inkscape:groupmode="layer"
     id="layer1"><path
       style="fill:#5ab263;stroke:none;stroke-width:2.20573"
       d="m 153.88767,27.768461 c -21.54675,12.808622 -46.62491,68.180112 -54.328707,92.362429 -4.859784,15.25494 2.620807,36.31708 21.087917,26.67857 21.9393,-11.45079 49.63543,-71.83464 55.38769,-96.091491 3.69289,-15.572708 -5.17359,-33.039358 -22.1469,-22.949508 m 79.45508,-0.08922 c -22.95592,14.599178 -37.66981,59.327737 -50.65798,83.196893 -37.84559,69.55098 -76.03605,138.8849 -114.074921,208.31378 -16.462196,30.04695 -45.688857,69.07352 -10.903217,98.40613 19.657673,16.5761 62.159538,8.06536 85.924818,8.06536 h 220.65179 c 20.49096,0 79.49948,10.55406 91.62497,-11.24439 18.65123,-33.53003 -60.52976,-25.78917 -73.97282,-25.78917 H 174.52271 c -20.40132,0 -61.61018,8.11145 -77.841041,-7.42242 -19.175062,-18.35168 13.041261,-58.90597 22.330751,-75.90309 36.37573,-66.55721 70.82945,-168.0586 123.4254,-221.244116 20.28272,-20.51005 35.71392,10.285683 44.94759,26.817916 25.68619,45.98927 50.54633,92.53815 75.65834,138.87585 7.24668,13.37188 26.60528,37.79205 18.30591,54.07873 -12.22619,23.99259 -95.63187,10.41162 -118.56624,10.74787 -12.63302,0.18524 -40.88858,1.34851 -36.04659,22.64588 4.19736,18.46204 31.69827,14.3636 44.87266,14.36981 h 127.97802 c 13.08733,-0.007 35.94352,3.68579 43.766,-10.73001 11.65769,-21.48362 -24.97659,-68.29786 -34.93993,-86.48308 L 301.83673,59.954973 C 287.99832,34.649815 264.0961,8.1212112 233.34275,27.679237 m 107.12507,0.08922 C 322.21703,42.21039 349.79097,89.647286 369.82,73.62462 388.31393,58.829959 360.50661,11.911682 340.46782,27.768461 m 55.66691,91.858779 c -27.77197,8.47961 5.45629,71.78539 28.97077,65.45167 27.51078,-7.41014 -5.40398,-72.6473 -28.97077,-65.45167 M 246.78617,148.1275 c -35.85129,21.80615 -68.98611,114.29028 -88.55017,152.54557 -5.97395,11.68142 -22.09528,41.51375 -0.75934,47.44211 16.26758,4.52007 26.89787,-17.21656 33.44169,-28.92891 12.13125,-21.71286 37.10213,-93.84606 63.27397,-97.57387 27.65295,-3.93876 33.98006,69.38702 64.49294,50.88545 13.19284,-7.99953 5.05624,-26.19183 0.0342,-36.63351 C 309.03678,215.73299 275.71883,130.52958 246.7863,148.1275 M 64.591917,194.60161 C 40.998692,206.34347 11.335758,270.69002 2.9388104,296.026 c -4.2432148,12.8029 0.038616,32.11402 16.8621606,27.92877 24.20833,-6.02239 59.908038,-82.74718 66.008241,-106.58578 3.760292,-14.69467 -5.497904,-30.59054 -21.217295,-22.76738 m 386.828413,36.8514 c -22.14665,17.71676 32.37523,111.5368 55.15279,88.72624 18.7053,-18.73241 -31.57696,-107.58628 -55.15279,-88.72624 M 101.0981,467.44911 c -11.963537,9.01145 -3.633302,22.79914 7.71263,26.17853 19.83428,5.90762 86.45084,9.86203 103.32152,-3.2826 14.0205,-10.924 0.96123,-24.81405 -11.32884,-26.96435 -21.48832,-3.75967 -81.61718,-9.55633 -99.70531,4.06842 m 173.17761,0.0892 c -14.32294,11.29863 2.80368,33.32926 17.31161,22.71735 15.42052,-11.27943 -3.25939,-33.80246 -17.31161,-22.71735 m 79.45168,-0.0892 c -26.77543,22.61175 44.93356,38.73406 60.5907,20.24913 21.33429,-25.18728 -47.91439,-30.95421 -60.5907,-20.24913 z"
       id="path1" /></g></svg>
